<svg viewBox="0 0 72.648 59.494" xmlns="http://www.w3.org/2000/svg"><g transform="translate(-105.95 -55.191)"><g aria-label="sinpay" style="font-size:20.5161px;line-height:1.25;font-family:'Roboto Mono';-inkscape-font-specification:'Roboto Mono';fill:#f8f8f8;stroke-width:.512902"><path d="M113.132 107.333q0 .25-.13.46-.12.21-.37.371-.261.16-.672.26-.4.09-.942.09-.45 0-.881-.09-.421-.09-.752-.29-.33-.19-.54-.501-.211-.32-.241-.761h-2.655q0 .66.32 1.322.331.651.963 1.162.63.521 1.562.842.942.32 2.164.32 1.112 0 2.014-.24.901-.25 1.542-.692.631-.44.972-1.041.35-.611.35-1.333 0-.781-.35-1.342-.34-.571-.952-.972-.61-.39-1.452-.64-.842-.251-1.823-.412-.682-.1-1.122-.23-.441-.14-.692-.31-.26-.16-.36-.361-.1-.21-.1-.451 0-.24.11-.45.12-.221.34-.381.24-.18.622-.281.38-.1.891-.1.601 0 1.022.15.43.15.681.4.18.191.27.432.09.23.09.5h2.786q0-.75-.33-1.392-.332-.641-.953-1.112-.63-.46-1.532-.721-.902-.27-2.034-.27-1.082 0-1.943.27-.862.27-1.463.731-.6.46-.921 1.072-.321.611-.321 1.282 0 .691.31 1.222.321.531.882.932.561.41 1.342.701.792.28 1.743.471.752.14 1.243.28.49.14.791.301.29.17.4.36.121.191.121.442zM119.193 99.469v2.274h3.085v6.3h-3.085v2.265h8.835v-2.264h-2.935v-8.575zm2.885-2.775q0 .32.11.6.12.271.33.462.21.2.501.31.3.11.661.11.742 0 1.173-.41.44-.421.44-1.072t-.44-1.062q-.431-.42-1.172-.42-.361 0-.662.11-.29.11-.5.3-.21.2-.331.48-.11.271-.11.592zM130.763 110.308h2.795v-7.704q.14-.22.31-.4.17-.18.381-.311.26-.18.591-.27.34-.09.741-.09.481 0 .862.1.38.09.651.33.27.24.41.661.151.41.151 1.052v6.632h2.785v-6.672q0-1.182-.28-2.004-.271-.831-.762-1.362-.5-.52-1.182-.761-.681-.24-1.503-.24-.64 0-1.212.18-.57.18-1.052.52-.28.2-.53.451-.25.25-.461.551l-.17-1.502h-2.525zM143.115 114.475h2.785v-5.109q.19.21.4.38.21.171.441.311.39.22.842.33.46.121 1.001.121 1.022 0 1.814-.42.79-.421 1.332-1.163.53-.731.801-1.743.28-1.012.28-2.194v-.21q0-1.232-.28-2.244-.27-1.022-.811-1.753-.541-.721-1.333-1.112-.79-.4-1.823-.4-.5 0-.941.11-.431.1-.792.29-.3.16-.56.38-.261.211-.482.482l-.1-1.062h-2.574zm6.912-9.697v.21q0 .672-.12 1.273-.12.59-.381 1.041-.26.451-.681.712-.41.26-1.002.26-.37 0-.671-.07-.3-.08-.531-.22-.24-.15-.43-.361-.181-.21-.311-.47v-4.529q.14-.28.33-.49.2-.211.461-.351.23-.12.51-.18.281-.07.622-.07.591 0 1.002.25.42.25.691.681.26.44.38 1.042.13.59.13 1.272zM162.158 110.308h2.825v-.17q-.21-.411-.32-.982-.11-.571-.11-1.443v-4.648q0-.942-.351-1.653-.35-.721-.972-1.192-.621-.47-1.472-.711-.842-.24-1.824-.24-1.092 0-1.943.28-.842.27-1.423.741-.59.47-.901 1.092-.3.621-.3 1.312h2.784q0-.29.08-.53.09-.241.27-.411.201-.19.522-.29.32-.111.761-.111.501 0 .872.13.38.12.63.35.241.221.361.532.12.3.12.681v.641h-1.552q-1.202 0-2.134.22-.922.21-1.553.622-.7.45-1.052 1.152-.35.69-.35 1.592 0 .702.28 1.303.28.59.782 1.022.5.43 1.192.67.701.241 1.533.241.51 0 .951-.1.441-.09.812-.26.36-.16.66-.381.301-.22.532-.471.05.29.12.55.07.261.17.462zm-2.654-1.954q-.391 0-.692-.09-.29-.1-.49-.26-.2-.17-.311-.411-.1-.25-.1-.541 0-.37.14-.681.14-.32.43-.551.291-.22.752-.34.46-.131 1.112-.131h1.423v1.863q-.12.21-.331.421-.21.2-.5.36-.291.16-.652.261-.36.1-.781.1zM169.411 114.685q.841 0 1.453-.28.62-.28 1.051-.691.431-.411.712-.892.29-.48.47-.891l5.5-12.462h-3.075l-2.475 6.37-.41 1.083-.3-1.102-2.485-6.351h-3.046l4.588 10.378-.64 1.192q-.12.22-.211.34-.08.12-.26.361-.18.24-.441.441-.25.21-.581.21-.16 0-.431-.02-.26-.01-.43-.01l-.341 2.124q.36.1.65.15.301.05.702.05z" style="font-weight:700;-inkscape-font-specification:'Roboto Mono Bold'"/></g><g transform="rotate(-45 -55.652 -144.818)"><rect style="fill:#7137f0;fill-opacity:1;stroke-width:.230072" width="20.341" height="20.432" x="-71.707" y="139.595" ry="4.837"/><rect style="fill:#f037a5;fill-opacity:1;stroke-width:.275688" width="20.427" height="29.214" x="-80.537" y="130.814" ry="4.732"/><path style="fill:#bd37f0;fill-opacity:1;stroke-width:.275688" d="M-66.87 139.595a4.826 4.826 0 0 0-4.837 4.837c.002 3.727-.002 7.454 0 11.18 0 2.439-1.718 4.416-4.157 4.416h19.557c-2.313 0-3.613-1.785-3.802-4.049v-16.384z"/></g><circle style="fill:#fff;fill-opacity:1;stroke-width:.279419" cx="42.502" cy="138.69" r="1.869" transform="rotate(-45)"/></g></svg>
